<svg
	version="1.0"
	xmlns="http://www.w3.org/2000/svg"
	width="370.000000pt"
	height="569.000000pt"
	viewBox="0 0 370.000000 569.000000"
	preserveAspectRatio="xMidYMid meet"
>
	<style xmlns="http://www.w3.org/2000/svg">
		g {
			fill: #8047F8;
		}
		@media (prefers-color-scheme: dark) {
			g {
				fill: #EBE5F9;
			}
		}
	</style>
	<g
		transform="translate(0.000000,569.000000) scale(0.100000,-0.100000)"
		fill="#8047F8"
		stroke="none"
	>
		<path
			d="M521 5678 c-54 -20 -75 -86 -90 -289 -10 -133 -28 -189 -65 -208 -12
	-5 -71 -11 -133 -13 -107 -3 -113 -4 -150 -34 -28 -23 -44 -48 -62 -95 -22
	-61 -23 -72 -17 -244 3 -99 9 -201 12 -227 l7 -48 1827 0 c1732 0 1828 1 1835
	18 3 9 9 103 12 207 6 207 -2 266 -49 335 -37 53 -80 69 -207 77 -152 8 -147
	1 -154 220 -6 186 -22 263 -61 288 -20 14 -184 16 -1355 18 -733 1 -1340 -1
	-1350 -5z"
		/>
		<path
			d="M310 4298 c0 -24 41 -594 90 -1268 49 -674 106 -1445 125 -1715 19
	-269 38 -514 41 -543 l5 -52 58 0 57 0 38 -327 c43 -380 44 -383 62 -383 22 0
	130 57 224 118 117 76 297 258 382 387 208 315 317 686 335 1138 l6 167 -111
	0 c-129 0 -125 -3 -162 113 -12 37 -25 67 -29 67 -4 0 -28 -14 -54 -31 -59
	-39 -149 -137 -186 -200 l-28 -50 -18 63 c-58 203 18 447 182 584 32 27 59 49
	60 49 1 0 7 56 12 123 20 220 65 387 157 582 88 183 250 410 294 410 42 0 214
	-236 294 -403 90 -190 144 -398 153 -600 l6 -117 33 -20 c81 -51 178 -184 214
	-294 31 -97 28 -263 -6 -345 l-15 -35 -29 50 c-16 28 -52 76 -80 107 -51 56
	-141 123 -157 116 -4 -2 -18 -37 -29 -77 -12 -41 -28 -78 -35 -83 -8 -5 -62
	-9 -121 -9 l-108 0 0 -104 c0 -335 77 -693 209 -971 155 -324 368 -553 648
	-694 114 -58 120 -57 128 26 4 38 18 154 31 258 13 105 29 234 36 288 l11 97
	58 0 58 0 5 53 c4 28 15 180 26 337 12 157 43 589 70 960 89 1215 160 2204
	160 2237 l0 33 -1550 0 -1550 0 0 -42z"
		/>
	</g>
</svg>
